<svg width="24" height="24" viewBox="0 0 24 24" fill="none" stroke="currentColor" stroke-width="2">
  <!-- Estante -->
  <path d="M2 20h20v1H2z"/>
  <path d="M2 16h20v1H2z"/>
  <path d="M2 12h20v1H2z"/>
  <path d="M2 8h20v1H2z"/>
  <path d="M2 4h20v1H2z"/>
  
  <!-- Livros na prateleira superior -->
  <rect x="3" y="4.5" width="1.5" height="3.5" fill="currentColor" opacity="0.8"/>
  <rect x="4.8" y="4.5" width="1.2" height="3.5" fill="currentColor" opacity="0.6"/>
  <rect x="6.2" y="4.5" width="1.8" height="3.5" fill="currentColor" opacity="0.9"/>
  <rect x="8.2" y="4.5" width="1.3" height="3.5" fill="currentColor" opacity="0.7"/>
  
  <!-- Livros na prateleira do meio -->
  <rect x="3.5" y="8.5" width="1.2" height="3.5" fill="currentColor" opacity="0.7"/>
  <rect x="5" y="8.5" width="1.6" height="3.5" fill="currentColor" opacity="0.8"/>
  <rect x="6.8" y="8.5" width="1.4" height="3.5" fill="currentColor" opacity="0.6"/>
  <rect x="8.4" y="8.5" width="1.1" height="3.5" fill="currentColor" opacity="0.9"/>
  
  <!-- Livros na prateleira inferior -->
  <rect x="3" y="12.5" width="1.7" height="3.5" fill="currentColor" opacity="0.8"/>
  <rect x="5" y="12.5" width="1.3" height="3.5" fill="currentColor" opacity="0.7"/>
  <rect x="6.5" y="12.5" width="1.5" height="3.5" fill="currentColor" opacity="0.9"/>
  
  <!-- Livros na parte direita -->
  <rect x="15" y="4.5" width="1.4" height="3.5" fill="currentColor" opacity="0.6"/>
  <rect x="16.6" y="4.5" width="1.2" height="3.5" fill="currentColor" opacity="0.8"/>
  <rect x="18" y="4.5" width="1.6" height="3.5" fill="currentColor" opacity="0.7"/>
  
  <rect x="14.5" y="8.5" width="1.3" height="3.5" fill="currentColor" opacity="0.9"/>
  <rect x="16" y="8.5" width="1.5" height="3.5" fill="currentColor" opacity="0.6"/>
  <rect x="17.7" y="8.5" width="1.2" height="3.5" fill="currentColor" opacity="0.8"/>
  
  <rect x="15.2" y="12.5" width="1.6" height="3.5" fill="currentColor" opacity="0.7"/>
  <rect x="17" y="12.5" width="1.3" height="3.5" fill="currentColor" opacity="0.9"/>
  <rect x="18.5" y="12.5" width="1.2" height="3.5" fill="currentColor" opacity="0.6"/>
  
  <!-- Suportes verticais da estante -->
  <path d="M1 4v16h1V4z"/>
  <path d="M22 4v16h1V4z"/>
</svg>
